<?xml version="1.0" encoding="UTF-8"?>
<svg width="16.333333px" height="12.7594169px" viewBox="0 0 16.333333 12.7594169" version="1.1" xmlns="http://www.w3.org/2000/svg" xmlns:xlink="http://www.w3.org/1999/xlink">
    <title>33453544-09D4-4AA4-A140-08AB2789ABC3</title>
    <defs>
        <polygon id="path-1" points="0 0 16.333333 0 16.333333 12.7594169 0 12.7594169"></polygon>
    </defs>
    <g id="UI-Design-V3-(current)" stroke="none" stroke-width="1" fill="none" fill-rule="evenodd">
        <g id="XS-|-Newsletter-1" transform="translate(-40.833333, -416.000000)">
            <g id="Group-9" transform="translate(36.000000, 130.000000)">
                <g id="Group-3" transform="translate(0.500000, 272.000000)">
                    <g id="Checkmark" transform="translate(0.000000, 7.000000)">
                        <g id="Agree-check" transform="translate(4.333333, 7.000000)">
                            <mask id="mask-2" fill="white">
                                <use xlink:href="#path-1"></use>
                            </mask>
                            <g id="Clip-2"></g>
                            <path d="M15.3307259,1.00232182 L15.3307259,1.00232182 L15.3307259,1.00232182 L14.5698781,0.241474058 C14.2474689,-0.0809351806 13.724386,-0.0809351806 13.4019768,0.241474058 L11.413311,2.23013989 L6.27473539,7.36871546 C6.07976815,7.5636827 5.76306527,7.5636827 5.56809803,7.36871546 L2.93176054,4.73237797 C2.6093513,4.40996873 2.08626847,4.40996873 1.76385923,4.73237797 L0.242163708,6.25502455 C-0.0811965907,6.57743379 -0.080245531,7.10051662 0.242163708,7.42292586 L5.33699053,12.5177527 C5.66035082,12.8401619 6.1824826,12.8401619 6.5058429,12.5177527 L16.0915736,2.93107089 C16.4139829,2.60866165 16.4139829,2.08557882 16.0915736,1.76316958 L15.3307259,1.00232182 Z" id="Fill-1" fill="#79B700" mask="url(#mask-2)"></path>
                        </g>
                    </g>
                </g>
            </g>
        </g>
    </g>
</svg>